<?xml version="1.0" ?>
<mxfile host="app.diagrams.net">
  <diagram name="Page-1">
    <mxGraphModel dx="1020" dy="660" grid="1" gridSize="10" guides="1">
      <root>
        <mxCell id="0"/>
        <mxCell id="1" parent="0"/>
        <mxCell id="2" value="admin" style="shape=actor;whiteSpace=wrap;html=1;" vertex="1" parent="1">
          <mxGeometry x="40" y="40" width="160" height="60" as="geometry"/>
        </mxCell>
        <mxCell id="3" value="operator" style="shape=actor;whiteSpace=wrap;html=1;" vertex="1" parent="1">
          <mxGeometry x="40" y="180" width="160" height="60" as="geometry"/>
        </mxCell>
        <mxCell id="4" value="device" style="shape=actor;whiteSpace=wrap;html=1;" vertex="1" parent="1">
          <mxGeometry x="40" y="320" width="160" height="60" as="geometry"/>
        </mxCell>
        <mxCell id="5" value="snmp" style="shape=actor;whiteSpace=wrap;html=1;" vertex="1" parent="1">
          <mxGeometry x="40" y="460" width="160" height="60" as="geometry"/>
        </mxCell>
        <mxCell id="6" value="monitor" style="shape=actor;whiteSpace=wrap;html=1;" vertex="1" parent="1">
          <mxGeometry x="40" y="600" width="160" height="60" as="geometry"/>
        </mxCell>
        <mxCell id="7" value="Register User" style="shape=ellipse;whiteSpace=wrap;html=1;" vertex="1" parent="1">
          <mxGeometry x="300" y="40" width="160" height="60" as="geometry"/>
        </mxCell>
        <mxCell id="8" value="Add Device" style="shape=ellipse;whiteSpace=wrap;html=1;" vertex="1" parent="1">
          <mxGeometry x="300" y="120" width="160" height="60" as="geometry"/>
        </mxCell>
        <mxCell id="9" value="Poll Device Status" style="shape=ellipse;whiteSpace=wrap;html=1;" vertex="1" parent="1">
          <mxGeometry x="300" y="200" width="160" height="60" as="geometry"/>
        </mxCell>
        <mxCell id="10" value="Generate Alert" style="shape=ellipse;whiteSpace=wrap;html=1;" vertex="1" parent="1">
          <mxGeometry x="300" y="280" width="160" height="60" as="geometry"/>
        </mxCell>
        <mxCell id="11" value="Receive SNMP Traps" style="shape=ellipse;whiteSpace=wrap;html=1;" vertex="1" parent="1">
          <mxGeometry x="300" y="360" width="160" height="60" as="geometry"/>
        </mxCell>
        <mxCell id="12" value="Upload MIB File" style="shape=ellipse;whiteSpace=wrap;html=1;" vertex="1" parent="1">
          <mxGeometry x="300" y="440" width="160" height="60" as="geometry"/>
        </mxCell>
      </root>
    </mxGraphModel>
  </diagram>
</mxfile>
